<svg enable-background="new 0 0 256 256" height="512" viewBox="0 0 256 256" width="512" xmlns="http://www.w3.org/2000/svg"><path d="m176.275 54.702c-4.852-22.197-24.614-38.815-48.266-38.815s-43.414 16.618-48.266 38.815c-2.796 12.787-12.805 17.298-10.498 36.705 1.648 13.861 10.811 25.561 23.232 30.913 4.883 2.104 9.623 4.498 14.11 7.349 13.041 8.287 29.701 8.352 42.844 0 4.487-2.851 9.228-5.245 14.11-7.349 12.42-5.351 21.584-17.051 23.231-30.913 2.259-19.001-7.91-24.87-10.497-36.705z" fill="#f98080"/><path d="m210.785 5.186c-4.974-1.963-13.295-4.019-23.12-1.563-12.167 3.042-24.848 14.439-31.458 21.115 10.023 6.984 17.342 17.579 20.053 29.909 6.365-.586 29.316-4.074 28.452-23.95-.486-11.182 3.658-17.277 7.005-20.347 1.684-1.544 1.194-4.325-.932-5.164z" fill="#fd605b"/><path d="m99.8 24.745c-6.608-6.674-19.294-18.079-31.465-21.122-9.825-2.456-18.145-.4-23.12 1.563-2.126.839-2.616 3.62-.932 5.164 3.347 3.07 7.491 9.165 7.005 20.347-.865 19.893 22.127 23.37 28.469 23.951 2.709-12.327 10.025-22.918 20.043-29.903z" fill="#fd605b"/><path d="m148.243 85.163c0 7.172-9.063 11.13-20.243 11.13s-20.243-3.959-20.243-11.13c0-7.172 9.063-16.696 20.243-16.696s20.243 9.524 20.243 16.696z" fill="#fd605b"/><g fill="#f98080"><path d="m171.875 117.404c-2.552 1.964-5.345 3.627-8.334 4.915-4.883 2.104-9.623 4.497-14.11 7.349-13.144 8.352-29.803 8.287-42.844 0-4.487-2.852-9.228-5.245-14.11-7.349-2.993-1.29-5.791-2.955-8.346-4.924-9.985 15.738-16.104 29.639-16.104 52.851 0 14.937 2.533 29.002 7 41.324 3.058 8.435 8.991 15.268 16.476 19.58l1.833 10.049h16.249l.351-5.027c.131.001.26.015.392.015h35.359c.127 0 .251-.013.378-.014l.351 5.026h16.249l1.814-9.947c7.298-4.13 13.128-10.644 16.156-18.761 4.678-12.541 7.339-26.935 7.339-42.246 0-23.206-6.117-37.104-16.099-52.841z"/><path d="m187.945 172.869c-.286 14.332-2.901 27.802-7.31 39.624-3.025 8.11-8.86 14.597-16.15 18.725l-.152.831 27.175 8.8 15.462-14.539c-1.258-23.397-10.653-41.62-19.025-53.441z"/><path d="m91.498 231.128c-7.48-4.31-13.416-11.126-16.472-19.556-4.205-11.599-6.694-24.741-6.972-38.702-8.372 11.821-17.766 30.044-19.025 53.441l15.462 14.539 27.175-8.8z"/><path d="m210.785 5.186c-4.974-1.963-13.295-4.019-23.12-1.563-12.167 3.042-24.848 14.439-31.458 21.115 4.702 3.276 8.789 7.357 12.102 12.031 18.447-24.691 34.45-27.348 43.242-26.26.055-.051.111-.109.165-.159 1.685-1.544 1.195-4.325-.931-5.164z"/><path d="m87.7 36.781c3.313-4.675 7.399-8.758 12.101-12.036-6.609-6.674-19.295-18.079-31.466-21.122-9.825-2.456-18.145-.4-23.12 1.563-2.126.839-2.616 3.62-.932 5.164.054.05.11.107.165.159 8.794-1.088 24.801 1.569 43.252 26.272z"/></g><path d="m113.218 251.193-3.634-9.993h-16.248l-6.22 10.663c-.494.846.296 1.862 1.238 1.593l10.778-3.079c1.171-.334 2.409-.355 3.59-.06l9.212 2.303c.844.211 1.582-.608 1.284-1.427z" fill="#7d3d1a"/><path d="m142.782 251.193 3.634-9.993h16.249l6.22 10.663c.494.846-.296 1.862-1.238 1.593l-10.778-3.079c-1.171-.334-2.409-.355-3.59-.06l-9.212 2.303c-.845.211-1.583-.608-1.285-1.427z" fill="#7d3d1a"/><path d="m220.798 233.46-13.827-7.149-15.462 14.539 8.776 10.222c.454.979 1.761 1.175 2.483.372l3.114-11.715c1.45-1.615 2.282-1.524 4.431-1.826l10.095-1.575c1.503-.211 1.782-2.263.39-2.868z" fill="#7d3d1a"/><path d="m35.202 233.46 13.827-7.149 15.462 14.539-8.776 10.222c-.454.979-1.761 1.175-2.483.372l-3.114-11.715c-1.45-1.615-2.282-1.524-4.431-1.826l-10.095-1.575c-1.503-.211-1.782-2.263-.39-2.868z" fill="#7d3d1a"/><path d="m128.008 138.368c-7.924 0-15.848-2.196-22.762-6.59-4.06-2.58-8.561-4.923-13.759-7.163-13.531-5.829-23.004-18.441-24.725-32.914-1.562-13.135 2.185-19.882 5.808-26.407 1.949-3.51 3.79-6.825 4.73-11.127 5.166-23.63 26.492-40.781 50.708-40.781s45.542 17.151 50.708 40.782c.846 3.867 2.62 7.125 4.499 10.576 3.557 6.531 7.588 13.933 6.039 26.958-1.72 14.472-11.194 27.084-24.725 32.914-5.194 2.238-9.695 4.581-13.759 7.163-6.913 4.392-14.837 6.589-22.762 6.589zm.001-119.982c-21.884 0-41.156 15.498-45.824 36.85-1.098 5.02-3.205 8.815-5.244 12.486-3.386 6.099-6.585 11.859-5.214 23.39 1.51 12.707 9.84 23.786 21.738 28.912 5.445 2.346 10.176 4.811 14.462 7.535 12.199 7.751 27.962 7.75 40.162 0 4.291-2.726 9.021-5.191 14.462-7.535 11.898-5.126 20.228-16.205 21.738-28.912 1.36-11.443-1.955-17.531-5.466-23.977-1.964-3.606-3.994-7.336-4.992-11.899-4.667-21.352-23.938-36.85-45.822-36.85z"/><path d="m176.258 57.147c-1.162 0-2.186-.808-2.439-1.963-2.532-11.519-9.294-21.603-19.041-28.395-.604-.422-.993-1.09-1.06-1.824-.067-.735.193-1.462.713-1.986 6.695-6.762 19.838-18.583 32.628-21.781 10.337-2.584 19.106-.522 24.645 1.663 1.796.709 3.079 2.268 3.432 4.169.354 1.916-.291 3.846-1.729 5.164-3.069 2.815-6.636 8.292-6.196 18.396.757 17.42-15.373 25.136-30.722 26.547-.078.007-.155.01-.231.01zm-16.218-32.682c8.896 6.977 15.236 16.57 18.128 27.447 7.886-1.077 24.736-5.246 24.046-21.106-.522-12.027 3.96-18.764 7.813-22.297.221-.203.214-.443.191-.568-.027-.143-.109-.333-.352-.428-4.855-1.917-12.547-3.725-21.596-1.463-10.456 2.613-21.513 11.922-28.23 18.415z"/><path d="m79.759 57.148c-.076 0-.153-.003-.23-.01-15.356-1.407-31.496-9.121-30.738-26.549.439-10.104-3.127-15.581-6.197-18.396-1.437-1.318-2.083-3.249-1.728-5.164.352-1.901 1.635-3.46 3.431-4.169 5.537-2.185 14.308-4.246 24.644-1.663 12.793 3.198 25.939 15.024 32.636 21.789.519.524.78 1.251.713 1.985-.067.735-.455 1.402-1.06 1.824-9.742 6.792-16.5 16.874-19.031 28.389-.254 1.156-1.278 1.964-2.44 1.964zm-20.523-52.152c-5.342 0-9.856 1.234-13.104 2.516-.242.095-.324.286-.35.428-.023.125-.029.366.191.568 3.853 3.533 8.335 10.27 7.812 22.297-.69 15.87 16.173 20.034 24.063 21.109 2.891-10.874 9.229-20.466 18.119-27.442-6.717-6.495-17.779-15.808-28.239-18.424-2.998-.749-5.846-1.052-8.492-1.052z"/><path d="m128 115.143c-6.454 0-12.632-2.753-16.95-7.555-.923-1.027-.839-2.607.187-3.531 1.028-.923 2.608-.839 3.531.187 3.371 3.749 8.194 5.898 13.232 5.898s9.861-2.15 13.231-5.898c.924-1.026 2.505-1.111 3.531-.187 1.026.923 1.11 2.504.188 3.531-4.318 4.801-10.496 7.555-16.95 7.555z"/><path d="m143.608 63.314c-1.377 0-2.496-1.114-2.5-2.492-.017-5.475 4.424-9.944 9.898-9.961h.032c2.641 0 5.124 1.024 6.998 2.886 1.882 1.87 2.923 4.36 2.931 7.012.004 1.381-1.111 2.503-2.492 2.508-.003 0-.006 0-.008 0-1.377 0-2.496-1.114-2.5-2.492-.004-1.317-.521-2.553-1.455-3.481-.93-.924-2.163-1.433-3.474-1.433-.006 0-.011 0-.017 0-2.718.009-4.923 2.228-4.914 4.946.004 1.381-1.111 2.503-2.492 2.508-.002-.001-.004-.001-.007-.001z"/><path d="m112.392 63.29c-1.381 0-2.5-1.119-2.5-2.5 0-2.718-2.211-4.93-4.93-4.93s-4.93 2.211-4.93 4.93c0 1.381-1.119 2.5-2.5 2.5s-2.5-1.119-2.5-2.5c0-5.475 4.455-9.93 9.93-9.93s9.93 4.455 9.93 9.93c0 1.381-1.12 2.5-2.5 2.5z"/><path d="m128 98.793c-13.603 0-22.743-5.478-22.743-13.63 0-8.694 10.145-19.195 22.743-19.195 12.599 0 22.743 10.501 22.743 19.195 0 8.153-9.139 13.63-22.743 13.63zm0-27.825c-10.124 0-17.743 8.611-17.743 14.195 0 5.93 9.197 8.63 17.743 8.63s17.743-2.701 17.743-8.63c0-5.584-7.619-14.195-17.743-14.195z"/><path d="m121.429 86.223c-1.381 0-2.5-1.119-2.5-2.5v-2.825c0-1.381 1.119-2.5 2.5-2.5s2.5 1.119 2.5 2.5v2.825c0 1.381-1.119 2.5-2.5 2.5z"/><path d="m134.14 86.223c-1.381 0-2.5-1.119-2.5-2.5v-2.825c0-1.381 1.119-2.5 2.5-2.5s2.5 1.119 2.5 2.5v2.825c0 1.381-1.119 2.5-2.5 2.5z"/><path d="m109.584 243.7h-16.249c-1.208 0-2.243-.863-2.459-2.051l-11.916-65.323c-.248-1.358.652-2.66 2.011-2.908 1.36-.25 2.66.652 2.908 2.011l11.542 63.271h11.832l4.17-59.748c.097-1.377 1.288-2.41 2.668-2.32 1.377.096 2.416 1.291 2.32 2.668l-4.333 62.073c-.091 1.311-1.181 2.327-2.494 2.327z"/><path d="m88.046 256c-1.088 0-2.131-.496-2.824-1.388-.904-1.163-1.008-2.736-.266-4.008l6.219-10.663c.448-.768 1.271-1.24 2.16-1.24h16.249c1.051 0 1.99.658 2.35 1.646l3.634 9.994c.455 1.25.184 2.64-.707 3.628-.891.987-2.245 1.401-3.535 1.078l-9.212-2.303c-.754-.188-1.548-.175-2.297.038l-10.777 3.08c-.33.092-.664.138-.994.138zm22.822-3.954v.001zm-16.097-8.346-3.726 6.387 7.398-2.114c1.59-.455 3.278-.483 4.883-.081l6.633 1.658-2.127-5.85z"/><path d="m162.664 243.7h-16.249c-1.313 0-2.402-1.016-2.494-2.326l-4.333-62.073c-.096-1.377.942-2.572 2.32-2.668 1.355-.089 2.572.942 2.668 2.32l4.171 59.748h11.832l11.542-63.271c.247-1.358 1.554-2.259 2.907-2.011 1.358.248 2.259 1.55 2.011 2.908l-11.916 65.323c-.216 1.186-1.251 2.05-2.459 2.05z"/><path d="m162.664 243.7h-16.249c-1.313 0-2.402-1.016-2.494-2.326l-.188-2.685h-31.467l-.188 2.686c-.092 1.31-1.181 2.326-2.494 2.326h-16.249c-1.208 0-2.243-.863-2.459-2.051l-1.629-8.932c-7.66-4.715-13.521-11.881-16.571-20.293-4.678-12.902-7.15-27.486-7.15-42.176 0-23.582 6.047-37.727 16.494-54.19.376-.593.985-1 1.677-1.123.691-.122 1.402.052 1.959.481 2.431 1.872 5.058 3.422 7.809 4.608 5.445 2.346 10.176 4.811 14.462 7.535 12.199 7.751 27.963 7.75 40.162 0 4.288-2.725 9.019-5.19 14.462-7.535 2.747-1.184 5.37-2.731 7.798-4.6.557-.428 1.267-.604 1.96-.481.691.122 1.301.53 1.677 1.123 10.442 16.463 16.487 30.606 16.487 54.182 0 15.061-2.592 29.971-7.496 43.119-3.003 8.051-8.748 14.922-16.245 19.464l-1.609 8.818c-.216 1.186-1.251 2.05-2.459 2.05zm-13.917-5h11.832l1.44-7.895c.133-.729.583-1.362 1.228-1.727 6.976-3.947 12.318-10.147 15.045-17.458 4.698-12.596 7.182-26.902 7.182-41.372 0-21.287-5.22-34.503-14.305-49.257-2.112 1.418-4.337 2.633-6.639 3.625-5.196 2.239-9.697 4.582-13.759 7.163-13.828 8.787-31.697 8.788-45.525 0-4.06-2.58-8.561-4.923-13.759-7.163-2.307-.994-4.535-2.211-6.651-3.633-9.088 14.754-14.31 27.972-14.31 49.265 0 14.116 2.369 28.111 6.85 40.472 2.781 7.67 8.241 14.157 15.374 18.265.637.367 1.08.995 1.212 1.718l1.459 7.998h11.832l.188-2.701c.092-1.32 1.186-2.311 2.522-2.326.099.001.197.006.295.011l35.428.004c.161-.009.255-.013.349-.014h.03c1.311 0 2.401 1.015 2.493 2.326z"/><path d="m167.953 256c-.329 0-.663-.045-.993-.14l-10.778-3.08c-.746-.213-1.541-.227-2.297-.038l-9.211 2.303c-1.288.324-2.646-.09-3.536-1.079-.89-.988-1.16-2.378-.706-3.627l3.634-9.994c.359-.988 1.298-1.646 2.35-1.646h16.249c.889 0 1.711.472 2.159 1.24l6.221 10.663c.742 1.273.638 2.846-.266 4.009-.694.892-1.738 1.389-2.826 1.389zm-22.822-3.954v.001s0 0 0-.001zm-2.35-.853h.01zm12.181-3.583c.874 0 1.748.121 2.594.363l7.398 2.114-3.726-6.387h-13.062l-2.127 5.85 6.633-1.658c.751-.188 1.521-.282 2.29-.282z"/><path d="m201.653 254.443c-.198 0-.397-.015-.597-.044-1.193-.179-2.229-.877-2.84-1.898l-8.604-10.022c-.871-1.014-.79-2.534.184-3.45l15.462-14.539c.771-.727 1.919-.888 2.861-.399l13.769 7.119c1.605.745 2.518 2.407 2.278 4.169-.244 1.797-1.615 3.173-3.411 3.425l-10.852 1.675c-1.124.144-1.411.18-1.769.507l-2.951 11.1c-.102.382-.292.734-.556 1.028-.766.854-1.847 1.329-2.974 1.329zm-6.691-13.409 6.098 7.102 2.406-9.05c.102-.382.292-.734.556-1.028 1.895-2.111 3.449-2.31 5.249-2.539l.696-.092 7.061-1.103-9.633-4.98zm24.84-5.281h.01zm.219-1.896c-.007.001-.014.002-.021.003z"/><path d="m54.346 254.443c-1.127 0-2.208-.475-2.974-1.329-.264-.293-.454-.646-.556-1.028l-2.951-11.1c-.358-.327-.646-.364-1.769-.507l-.757-.1-10.133-1.581c-1.758-.247-3.128-1.623-3.373-3.419-.24-1.763.673-3.425 2.278-4.17l13.768-7.119c.942-.487 2.088-.327 2.861.399l15.462 14.539c.974.916 1.055 2.436.185 3.45l-8.604 10.022c-.612 1.021-1.646 1.719-2.839 1.898-.2.03-.4.045-.598.045zm-15.374-20.118 7.757 1.194c1.799.229 3.354.428 5.249 2.539.264.293.454.646.556 1.028l2.406 9.05 6.098-7.102-12.432-11.69zm-3.032-.473.024.003c-.008-.001-.016-.002-.024-.003zm-.738-.392h.01z"/><path d="m206.843 185.107c-.263 0-.526-.011-.793-.034-1.376-.117-2.396-1.326-2.28-2.702.116-1.375 1.308-2.392 2.702-2.28 2.472.214 4.076-1.547 4.508-3.27.531-2.123-.566-3.999-2.936-5.018-6.126-2.634-13.331 2.065-17.081 5.101-1.076.869-2.649.701-3.517-.371-.868-1.073-.703-2.647.37-3.516 5.652-4.574 14.091-9.293 22.202-5.807 5.314 2.286 6.748 7.084 5.811 10.826-1.052 4.202-4.759 7.071-8.986 7.071z"/><path d="m191.509 243.35c-.258 0-.518-.04-.771-.122l-27.175-8.8c-1.191-.386-1.913-1.594-1.689-2.826l.151-.832c.133-.729.583-1.362 1.228-1.728 6.982-3.954 12.324-10.142 15.039-17.423 4.41-11.822 6.884-25.239 7.154-38.8.021-1.079.732-2.023 1.765-2.34 1.03-.316 2.15.064 2.774.945 8.164 11.527 18.171 30.383 19.481 54.753.04.735-.247 1.451-.783 1.956l-15.462 14.539c-.47.441-1.085.678-1.712.678zm-22.137-12.297 21.501 6.963 13.532-12.724c-1.231-18.623-7.788-33.812-14.337-44.628-.895 11.492-3.271 22.461-7.091 32.703-2.631 7.055-7.39 13.211-13.605 17.686z"/><path d="m64.491 243.35c-.627 0-1.242-.236-1.713-.679l-15.462-14.539c-.537-.504-.824-1.22-.784-1.956 1.312-24.37 11.318-43.225 19.482-54.752.623-.881 1.742-1.263 2.774-.945 1.032.317 1.744 1.261 1.765 2.34.267 13.395 2.562 26.146 6.823 37.899 2.774 7.651 8.232 14.13 15.37 18.242.636.366 1.079.994 1.211 1.717l.168.922c.225 1.232-.497 2.441-1.689 2.828l-27.176 8.8c-.252.083-.511.123-.769.123zm-12.897-18.058 13.532 12.724 21.61-6.998c-6.435-4.662-11.358-11.141-14.061-18.595-3.617-9.978-5.877-20.629-6.745-31.759-6.548 10.816-13.104 26.004-14.336 44.628z"/><path d="m168.31 39.269c-.011 0-.021 0-.031 0-.8-.01-1.546-.402-2.008-1.054-3.179-4.483-7.045-8.328-11.492-11.426-.605-.422-.994-1.089-1.061-1.824s.193-1.462.713-1.986c6.695-6.762 19.838-18.583 32.628-21.781 10.337-2.584 19.106-.522 24.645 1.663 1.796.709 3.079 2.268 3.432 4.169.354 1.916-.291 3.846-1.729 5.164l-.136.132c-.541.513-1.279.759-2.025.665-17.562-2.166-33.184 14.903-40.933 25.275-.473.631-1.215 1.003-2.003 1.003zm-8.271-14.803c3.054 2.401 5.826 5.14 8.287 8.186 8.674-10.922 24.023-25.994 41.875-24.782-.039-.13-.13-.278-.334-.358-4.855-1.917-12.547-3.725-21.596-1.463-10.458 2.614-21.515 11.924-28.232 18.417z"/><path d="m87.7 39.281c-.788 0-1.531-.372-2.003-1.004-7.751-10.377-23.375-27.457-40.942-25.287-.737.092-1.476-.149-2.018-.658l-.113-.109c-1.468-1.349-2.114-3.279-1.759-5.194.352-1.901 1.635-3.46 3.431-4.169 5.538-2.185 14.309-4.246 24.644-1.663 12.793 3.198 25.939 15.024 32.636 21.789.519.524.78 1.251.713 1.985-.067.735-.455 1.402-1.06 1.824-4.448 3.102-8.314 6.947-11.49 11.43-.462.652-1.209 1.044-2.009 1.055-.009.001-.02.001-.03.001zm-39.875-31.48c17.002 0 31.512 14.35 39.858 24.861 2.459-3.045 5.232-5.785 8.286-8.188-6.718-6.495-17.78-15.81-28.241-18.425-9.05-2.264-16.739-.454-21.596 1.463-.204.08-.294.228-.333.358.678-.046 1.355-.069 2.026-.069z"/></svg>