<svg enable-background="new 0 0 256 256" height="512" viewBox="0 0 256 256" width="512" xmlns="http://www.w3.org/2000/svg"><path d="m251.557 127.501c3.655-4.479 1.965-11.308-3.519-13.479.001-.052.008-.103.008-.155 0-5.738-5.512-9.907-11.062-8.283 4.667 3.706 5.08 10.591.928 14.825 5.544 3.495 6.297 11.235 1.529 15.727 4.266 4.019 4.196 10.788-.188 14.714.32.512.591 1.057.816 1.625 8.273 4.181 16.407-5.966 10.594-13.136 3.443-3.128 3.765-8.318.894-11.838z" fill="#e3e4e5"/><g fill="#ffc097"><path d="m207.412 173.855c-.946.297-1.952.458-2.995.458-1.691 0-3.282-.424-4.679-1.165-.294 1.871-1.111 3.565-2.289 4.94.187.878.291 1.805.291 2.795 0 11.958-8.851 26.888-11.154 30.57-.343.549-.861.949-1.462 1.183-7.805 3.05-8.915 9.337-8.949 12.496-.011 1.046.82 1.899 1.858 1.899h14.621c-1.038 0-1.869-.853-1.858-1.899.033-3.162 1.146-9.458 8.971-12.505.587-.229 1.092-.62 1.428-1.156 2.284-3.65 11.166-18.611 11.166-30.589 0-.184-.019-.355-.026-.535-2.45-1.349-4.273-3.694-4.923-6.492z"/><path d="m91.013 173.649c-1.759 1.541-4.056 2.482-6.578 2.482-.425 0-.841-.035-1.252-.087 1.462 17.263-4.946 32.446-6.738 36.3-.259.558-.772.958-1.378 1.037-8.864 1.154-9.912 8.452-9.907 11.878.002.982.792 1.773 1.767 1.773h20.759-6.139c-.122 0-.241-.012-.356-.036-.024-.005-.046-.016-.07-.022-.768-.191-1.34-.882-1.342-1.715 0 0 0-.002 0-.003-.008-6.417 3.327-11.015 9.898-11.874.563-.074 1.13-.485 1.387-1.038 1.612-3.465 6.95-16.096 6.948-31.158-3.518-1.02-6.239-3.916-6.999-7.537z"/><path d="m116.294 180.867c-1.14.455-2.378.717-3.682.717-2.213 0-4.252-.728-5.908-1.945-1.656 1.217-3.695 1.945-5.908 1.945-.966 0-1.897-.143-2.78-.398.003 15.063-5.339 27.692-6.951 31.157-.259.558-.772.958-1.378 1.037-8.864 1.154-9.913 8.452-9.907 11.878.002.982.792 1.773 1.767 1.773h20.759c5.848 0 3.899-11.783 3.899-11.783s-.975-2.946 3.899-11.783c2.736-4.958 4.855-14.86 6.19-22.598z"/><path d="m227.14 180.675c-1.509 0-2.934-.344-4.216-.942-1.633 1.161-3.625 1.851-5.782 1.851-1.743 0-3.379-.45-4.804-1.234.007.178.023.351.023.533 0 11.978-8.882 26.939-11.166 30.589-.336.536-.841.927-1.428 1.156-7.825 3.047-8.937 9.343-8.971 12.505-.011 1.046.82 1.899 1.858 1.899h23.606c3.095 0 2.504-6.808 2.13-9.614-.107-.799.026-1.602.385-2.322 1.878-3.762 8.02-16.003 12.106-23.412 2.002-3.63 2.521-8.581 2.441-13.157-1.703 1.341-3.847 2.148-6.182 2.148z"/></g><path d="m218.391 217.432c-.078-.584-.025-1.168.144-1.723-8.301 1.047-14.606-2.368-17.345-4.236-.345.538-.857.932-1.451 1.165-7.802 3.051-8.911 9.339-8.944 12.496-.011 1.045.82 1.897 1.858 1.897h23.606c3.09 0 2.507-6.784 2.132-9.599z" fill="#52565b"/><path d="m106.276 215.739c-6.738.779-12.136-1.366-15.343-3.182-.281.44-.723.755-1.246.823-8.864 1.154-9.912 8.452-9.907 11.878.002.982.792 1.773 1.767 1.773h20.759c5.132 0 4.261-9.067 3.97-11.292z" fill="#52565b"/><path d="m81.548 227.031c-.975 0-1.765-.791-1.767-1.773-.004-2.508.571-7.084 4.349-9.812-3.253-.631-5.921-1.815-7.817-2.889-.297.467-.777.762-1.246.823-1.089.142-2.463.518-2.971.701-4.816 1.739-6.943 6.094-6.935 11.177.002.982.792 1.773 1.767 1.773h20.759z" fill="#52565b"/><path d="m190.796 225.132c.025-2.411.689-6.643 4.469-9.869-3.995-.924-7.017-2.645-8.695-3.79-.343.538-.854.931-1.446 1.163-5.713 2.232-8.885 6.737-8.949 12.496-.011 1.046.82 1.898 1.858 1.898h14.621c-1.039.001-1.869-.852-1.858-1.898z" fill="#52565b"/><path d="m242.592 143.408c0-2.869-1.215-5.448-3.15-7.272 1.935-1.823 3.15-4.403 3.15-7.272 0-3.565-1.871-6.685-4.68-8.456 1.768-1.803 2.862-4.271 2.862-6.996 0-5.522-4.476-9.998-9.998-9.998 0-5.522-4.476-9.998-9.998-9.998-1.542 0-2.997.359-4.301.983-1.436-3.761-5.068-6.436-9.333-6.436-2.27 0-4.356.765-6.035 2.04-1.76-2.856-4.907-4.767-8.509-4.767-3.113 0-5.892 1.423-7.726 3.653-1.834-2.23-4.613-3.653-7.726-3.653-3.336 0-6.282 1.64-8.098 4.15-1.827-1.988-4.441-3.241-7.354-3.241-3.813 0-7.125 2.135-8.812 5.274-1.833-2.113-4.532-3.456-7.549-3.456-3.385 0-6.372 1.687-8.181 4.261-1.809-2.574-4.795-4.261-8.181-4.261-3.017 0-5.716 1.343-7.549 3.456-1.686-3.139-4.999-5.274-8.812-5.274-2.614 0-4.986 1.011-6.768 2.654-1.212-4.158-5.044-7.198-9.593-7.198-.386 0-.764.029-1.138.073-.199.115-.39.242-.598.343.543 1.183.854 2.495.854 3.881 0 4.567-3.286 8.36-7.62 9.162.003-.001.005-.001.008-.001-6.774 6.482-19.241 7.569-30.039 8.792-2.466.279-4.676 1.016-6.697 2.039-.141.669-.218 1.361-.218 2.071 0 4.328 2.755 8.002 6.602 9.394-1.285 1.682-2.057 3.777-2.057 6.058 0 3.801 2.121 7.106 5.244 8.797-1.834 1.813-2.972 4.327-2.972 7.109 0 4.929 3.57 9.015 8.263 9.838-.912 1.508-1.446 3.269-1.446 5.16 0 5.522 4.476 9.998 9.998 9.998.059 0 .116-.008.174-.009-.11.593-.174 1.202-.174 1.827 0 5.522 4.476 9.998 9.998 9.998 2.522 0 4.819-.941 6.578-2.482.951 4.532 4.968 7.935 9.783 7.935 2.213 0 4.252-.728 5.908-1.945 1.656 1.217 3.695 1.945 5.908 1.945 2.864 0 5.44-1.211 7.263-3.141 1.573 3.459 5.05 5.868 9.098 5.868 1.096 0 2.147-.183 3.134-.508 1.722 3.016 4.961 5.053 8.683 5.053 3.385 0 6.372-1.687 8.181-4.261 1.809 2.574 4.795 4.261 8.181 4.261 4.047 0 7.525-2.409 9.098-5.868 1.823 1.93 4.399 3.141 7.263 3.141 4.549 0 8.382-3.041 9.593-7.198 1.781 1.642 4.154 2.654 6.768 2.654 4.989 0 9.113-3.658 9.864-8.436 1.397.741 2.987 1.165 4.679 1.165 1.044 0 2.05-.161 2.995-.458 1.029 4.427 4.99 7.729 9.73 7.729 2.157 0 4.149-.69 5.782-1.851 1.283.598 2.708.942 4.216.942 5.522 0 9.998-4.476 9.998-9.998 0-2.106-.655-4.058-1.767-5.67 3.208-1.665 5.403-5.01 5.403-8.874 0-1.942-.563-3.749-1.521-5.283 2.047-1.831 3.341-4.483 3.341-7.443z" fill="#e3e4e5"/><path d="m86.045 95.221c-5.15 0-9.324-4.175-9.324-9.324 0-.091.011-.18.014-.271-4.089-.989-7.13-4.661-7.13-9.054 0-3.236 1.65-6.085 4.153-7.757-1.787-1.485-2.926-3.724-2.926-6.229 0-.988.186-1.93.509-2.805-.407.063-.821.105-1.245.105-3.898 0-7.151-2.755-7.922-6.424-.894.34-1.861.535-2.874.535-3.08 0-5.757-1.72-7.126-4.251-1.458 1.414-3.442 2.288-5.633 2.288-3.428 0-6.352-2.133-7.533-5.142-3.381 2.983-6.184 6.799-8.097 11.545 0 0-2 17.195-11.999 23.13-4.375 2.597-9.05 6.367-11.765 11.562 1.681.278 4.176.357 7.137-.622 5.303-1.754.964 13.844-8.098 13.508-.407-.015-.796-.15-1.151-.365.505 3.789 1.956 8.012 4.702 12.717.799 1.369 2.536 1.866 3.925 1.102l1.852-1.02s5.963 6.474 14.272 4.466c8.31-2.009 14.236-17.514 27.934-19.066 10.798-1.224 23.265-2.31 30.039-8.792-.557.103-1.128.164-1.714.164z" fill="#ffc097"/><path d="m3.529 95.108c.611-1.466 1.992-2.271 3.381-2.016 1.678.309 4.276.439 7.372-.586 5.303-1.754.964 13.844-8.098 13.508-.733-.027-1.419-.411-1.92-1.031-1.19-1.477-2.88-4.73-.735-9.875z" fill="#52565b"/><path d="m84.316 67.416c1.014-2.207 1.034-4.84-.188-7.154-1.252-2.372-3.516-3.859-5.98-4.224l-.418-1.048c1.557-2.383 1.815-5.511.391-8.207-.145-.274-.306-.534-.476-.784.939-.972 2.037-1.803 3.277-2.442 3.429-1.766 8.113-2.94 14.141-1.845.57.104 1.132.189 1.689.266-.6-4.57-4.501-8.101-9.235-8.101-2.154 0-4.132.738-5.711 1.964-.962-3.398-4.079-5.89-7.785-5.89-3.094 0-5.78 1.736-7.144 4.286-1.149-3.075-4.104-5.268-7.579-5.268-4.472 0-8.097 3.625-8.097 8.097 0 .09.011.178.013.267-1.321-.937-2.932-1.494-4.676-1.494-4.472 0-8.097 3.625-8.097 8.097s3.625 8.097 8.097 8.097c2.191 0 4.175-.874 5.633-2.288 1.369 2.531 4.047 4.251 7.126 4.251 1.014 0 1.98-.195 2.874-.535.771 3.669 4.024 6.424 7.922 6.424.425 0 .838-.042 1.245-.105-.324.875-.509 1.817-.509 2.805 0 2.505 1.139 4.744 2.926 6.229-2.503 1.672-4.153 4.521-4.153 7.757 0 4.392 3.041 8.065 7.13 9.054-.003.091-.014.179-.014.271 0 5.15 4.175 9.324 9.324 9.324s9.324-4.175 9.324-9.324c0-1.387-.311-2.699-.854-3.881 3.116-1.509 5.271-4.693 5.271-8.387 0-1.85-.546-3.57-1.475-5.02-4.477.983-9.235.805-13.992-1.192z" fill="#e3e4e5"/><path d="m122.939 42.85c-2.664-4.987-13.172 1.533-27.875-1.138-6.028-1.095-10.712.079-14.141 1.845-1.24.639-2.338 1.47-3.277 2.442.17.25.331.51.476.784 1.423 2.696 1.166 5.824-.391 8.207l.417 1.047c2.464.365 4.728 1.853 5.98 4.224 1.222 2.315 1.202 4.948.188 7.154 21.077 8.852 42.232-17.811 38.623-24.565z" fill="#f98080"/><path d="m95.064 41.712c-6.028-1.095-10.712.079-14.141 1.845-1.24.639-2.338 1.47-3.277 2.442.17.25.331.51.476.784 1.423 2.696 1.166 5.824-.391 8.207l.417 1.047c.703.104 1.385.31 2.037.591 6.278.031 16.342-1.112 24.856-5.728 7.912-4.289 13.665-3.883 17.142-2.748l.432-.038c.81-2.183.974-4.049.324-5.264-2.665-4.987-13.172 1.532-27.875-1.138z" fill="#ffc097"/><path d="m39.753 78.011c-1.377 0-2.496-1.114-2.5-2.492-.008-2.437.934-4.731 2.652-6.46s4.006-2.685 6.443-2.693h.031c5.017 0 9.106 4.073 9.123 9.094.004 1.381-1.111 2.504-2.492 2.508-.003 0-.006 0-.008 0-1.377 0-2.496-1.114-2.5-2.492-.004-1.102-.436-2.136-1.218-2.913-.778-.773-1.809-1.198-2.905-1.198-.005 0-.009 0-.014 0-1.102.003-2.136.436-2.913 1.217s-1.202 1.818-1.199 2.92c.004 1.38-1.111 2.503-2.492 2.508-.002.001-.005.001-.008.001z"/><path d="m217.142 184.084c-5.008 0-9.4-2.922-11.384-7.343-.444.048-.892.072-1.341.072-6.425 0-11.733-4.873-12.422-11.118-4.405-1.998-7.348-6.442-7.348-11.379 0-3.745 1.659-7.261 4.551-9.646 1.064-.879 2.64-.727 3.52.338.878 1.065.727 2.641-.338 3.52-1.736 1.432-2.732 3.542-2.732 5.789 0 3.341 2.248 6.306 5.467 7.21 1.113.312 1.866 1.348 1.822 2.502l-.012.224c-.005 4.197 3.359 7.561 7.493 7.561.765 0 1.521-.115 2.248-.343.665-.208 1.385-.129 1.988.215.604.345 1.037.927 1.194 1.604.793 3.412 3.793 5.795 7.295 5.795 1.381 0 2.5 1.119 2.5 2.5s-1.121 2.499-2.501 2.499z"/><path d="m116.505 183.299c-.974 0-1.9-.573-2.303-1.526-.538-1.272.057-2.739 1.328-3.277 2.783-1.177 4.581-3.889 4.581-6.91 0-.131-.011-.261-.02-.39l-.009-.123c-.073-1.092.572-2.104 1.593-2.499 2.915-1.127 4.799-3.87 4.799-6.987 0-1.394-.395-2.763-1.142-3.958-.644-1.031-.453-2.376.453-3.187 1.593-1.426 2.506-3.46 2.506-5.58 0-2.696-1.459-5.197-3.807-6.529-1.201-.681-1.623-2.207-.942-3.408s2.207-1.624 3.408-.942c3.912 2.218 6.341 6.386 6.341 10.878 0 2.878-1.005 5.658-2.806 7.873.65 1.533.988 3.181.988 4.853 0 4.603-2.46 8.716-6.395 10.902-.334 4.666-3.243 8.769-7.601 10.612-.317.134-.647.198-.972.198z"/><path d="m244.028 155.945c-1.702 0-3.436-.404-5.086-1.239-.544-.275-.97-.74-1.195-1.307-.175-.44-.381-.852-.614-1.224-.644-1.031-.453-2.376.453-3.187 1.589-1.423 2.479-3.371 2.506-5.485.027-2.116-.813-4.086-2.364-5.548-.501-.472-.786-1.13-.786-1.819s.284-1.347.786-1.82c1.705-1.605 2.553-3.855 2.329-6.173-.225-2.32-1.492-4.368-3.477-5.62-.64-.403-1.062-1.074-1.15-1.824-.088-.751.168-1.501.698-2.041 1.508-1.539 2.266-3.566 2.132-5.709-.133-2.144-1.138-4.065-2.83-5.409-.731-.581-1.078-1.521-.899-2.438.18-.917.855-1.657 1.751-1.919 3.398-.994 6.972-.349 9.804 1.773 2.442 1.83 3.987 4.495 4.367 7.461 2.568 1.477 4.42 3.89 5.182 6.816.742 2.852.352 5.777-1.061 8.27 2.145 3.813 1.836 8.557-.762 12.064 2.102 3.886 1.692 8.558-1.226 12.175-2.212 2.745-5.328 4.203-8.558 4.203zm-1.362-5.156c2.61.624 4.816-.68 6.029-2.184 1.44-1.786 2.312-4.872.027-7.691-.835-1.03-.721-2.532.26-3.424 2.414-2.194 2.694-5.887.638-8.407-.75-.92-.75-2.241 0-3.161 1.248-1.53 1.676-3.507 1.177-5.426-.497-1.907-1.837-3.419-3.679-4.148-.969-.383-1.599-1.329-1.579-2.371 0-.033.004-.108.007-.161-.016-1.928-.91-3.696-2.458-4.856-.275-.206-.563-.387-.861-.542.581 1.325.932 2.753 1.023 4.224.162 2.601-.501 5.172-1.855 7.356 2.06 2.032 3.353 4.716 3.639 7.666.296 3.057-.524 6.042-2.283 8.479 1.539 2.151 2.375 4.756 2.341 7.426-.034 2.607-.897 5.135-2.426 7.22z"/><path d="m192.654 229.531h-14.621c-1.169 0-2.267-.458-3.09-1.29-.83-.838-1.28-1.951-1.268-3.135.034-3.225 1.129-11.121 10.539-14.799.07-.027.193-.086.252-.18 1.799-2.876 10.774-17.806 10.774-29.245 0-.784-.077-1.528-.236-2.274-.162-.762.04-1.556.546-2.147.91-1.063 1.504-2.343 1.718-3.703.125-.798.629-1.487 1.352-1.848.722-.361 1.575-.352 2.29.028 1.769.939 3.856 1.127 5.755.53.665-.208 1.385-.129 1.988.215.604.345 1.037.927 1.194 1.604.48 2.065 1.827 3.84 3.694 4.87.768.423 1.258 1.218 1.292 2.094l.008.139c.011.162.02.323.02.491 0 12.496-8.838 27.587-11.547 31.915-.612.979-1.525 1.725-2.639 2.16-5.716 2.225-7.192 6.376-7.362 9.661 1.062.289 1.842 1.26 1.842 2.413-.001 1.382-1.12 2.501-2.501 2.501zm-13.958-5h9.616c.165-3.514 1.636-10.764 10.548-14.233.059-.023.166-.074.215-.153 1.757-2.808 10.352-17.091 10.77-28.42-1.776-1.281-3.183-3.004-4.081-4.985-1.458.156-2.956.054-4.385-.305-.343.81-.772 1.585-1.281 2.312.094.704.142 1.418.142 2.136 0 12.483-8.829 27.569-11.535 31.896-.619.99-1.543 1.746-2.673 2.187-5.649 2.207-7.145 6.299-7.336 9.565z"/><path d="m87.686 229.531h-20.759c-2.348 0-4.262-1.915-4.267-4.268-.012-7.86 4.34-13.178 11.669-14.304 2.033-4.456 7.725-18.618 6.362-34.705-.063-.751.215-1.491.759-2.013.542-.522 1.289-.771 2.042-.679.37.046.67.068.943.068 1.809 0 3.56-.661 4.931-1.862.668-.585 1.595-.774 2.439-.491.842.281 1.472.988 1.655 1.858.569 2.71 2.58 4.875 5.249 5.648 1.068.31 1.804 1.289 1.804 2.401.002 15.563-5.496 28.591-7.182 32.213-.609 1.311-1.916 2.277-3.329 2.462-5.994.783-7.541 4.996-7.706 8.67h5.39c1.381 0 2.5 1.119 2.5 2.5s-1.119 2.502-2.5 2.502zm-20.011-5h9.618c.254-7.458 4.561-12.481 11.657-13.571 1.659-3.639 6.176-14.719 6.54-28.061-2.472-1.155-4.48-3.078-5.741-5.461-1.229.58-2.548.957-3.904 1.112.679 16.584-5.224 30.742-7.133 34.847-.629 1.353-1.872 2.273-3.323 2.462-6.001.781-7.55 4.995-7.714 8.672z"/><path d="m102.307 229.531h-20.759c-2.35 0-4.264-1.915-4.267-4.269-.014-7.859 4.339-13.177 11.669-14.303 1.729-3.793 6.569-15.685 6.566-29.773 0-.786.369-1.526.998-1.999.628-.473 1.44-.623 2.197-.404 2.265.656 4.647.211 6.513-1.16.881-.647 2.08-.647 2.961 0 2.059 1.514 4.758 1.891 7.182.921.841-.334 1.798-.191 2.501.379.704.57 1.044 1.476.891 2.368-1.941 11.257-4.116 19.124-6.464 23.381-3.547 6.432-3.683 9.293-3.665 9.886.054.11.007.062.043.281.242 1.46 1.289 8.933-1.839 12.62-1.149 1.356-2.715 2.072-4.527 2.072zm-20.011-5h20.011c.382 0 .545-.107.712-.304 1.198-1.41 1.148-5.85.735-8.477-.294-1.294-.444-5.142 4.161-13.492 1.806-3.274 3.609-9.523 5.258-18.187-2.262.1-4.495-.411-6.469-1.479-1.911 1.033-4.048 1.55-6.25 1.487-.609 14.255-5.542 25.92-7.122 29.318-.63 1.354-1.873 2.273-3.323 2.461-6.002.782-7.549 4.996-7.713 8.673zm26.341-9.853h.01z"/><path d="m216.259 229.531h-23.605c-1.17 0-2.268-.458-3.091-1.29-.83-.838-1.28-1.951-1.268-3.135.035-3.23 1.133-11.136 10.563-14.808.06-.023.167-.074.217-.153 1.801-2.876 10.785-17.809 10.785-29.262 0-.063-.005-.125-.008-.186l-.013-.259c-.032-.899.422-1.747 1.188-2.218.767-.471 1.728-.494 2.516-.061 2.477 1.363 5.609 1.188 7.932-.464.733-.521 1.69-.609 2.505-.228 2.571 1.199 5.593.829 7.792-.904.745-.588 1.761-.705 2.619-.296.858.407 1.412 1.265 1.429 2.214.107 6.058-.818 10.906-2.751 14.41-4.079 7.397-10.26 19.72-12.058 23.321-.137.274-.186.568-.145.874.724 5.415.263 9.104-1.368 10.968-.833.953-1.983 1.477-3.239 1.477zm-22.942-5h22.537c.316-.804.554-3.062.057-6.783-.173-1.297.043-2.601.627-3.77 1.808-3.622 8.028-16.021 12.153-23.502 1.063-1.928 1.742-4.587 2.009-7.815-2.408.716-5.09.685-7.523-.137-2.555 1.418-5.589 1.894-8.47 1.319-1.186 11.822-8.896 24.965-11.393 28.956-.613.979-1.526 1.725-2.64 2.159-5.665 2.205-7.165 6.302-7.357 9.573z"/><path d="m15.513 120.95c-1.008 0-1.957-.613-2.337-1.611-.491-1.289.156-2.732 1.444-3.225.114-.044 6.324-2.491 8.578-6.913.892-1.75 1.939-3.202 3.113-4.315 1.002-.95 2.584-.908 3.535.093.95 1.002.908 2.584-.093 3.535-.76.721-1.467 1.716-2.1 2.958-3.147 6.173-10.921 9.189-11.251 9.314-.293.111-.594.164-.889.164z"/><path d="m87.822 78.901c-1.15 0-2.185-.798-2.44-1.967-.131-.602-.346-1.187-.637-1.737-.71-1.346-1.824-2.391-3.222-3.023-.758-.342-1.295-1.039-1.435-1.859-.139-.819.138-1.655.74-2.229 1.803-1.719 2.25-4.457 1.088-6.658-.965-1.829-2.854-2.972-4.928-2.983-.982-.005-1.871-.585-2.271-1.483s-.237-1.946.417-2.679c1.547-1.738 1.859-4.283.776-6.333-.698-1.322-1.869-2.293-3.298-2.734-1.319-.408-2.058-1.808-1.65-3.127s1.806-2.058 3.127-1.65c2.704.836 4.921 2.674 6.243 5.177 1.418 2.687 1.575 5.82.568 8.585 2.299.917 4.241 2.627 5.438 4.893 1.703 3.225 1.582 7.058-.141 10.135 1.215.989 2.221 2.214 2.969 3.632.502.951.872 1.962 1.1 3.005.294 1.349-.561 2.681-1.909 2.976-.179.04-.358.059-.535.059z"/><path d="m87.822 78.901c-1.15 0-2.185-.798-2.44-1.967-.131-.602-.346-1.187-.637-1.737-.71-1.346-1.824-2.391-3.222-3.023-.758-.342-1.295-1.039-1.435-1.859-.139-.819.138-1.655.74-2.229 1.803-1.719 2.25-4.457 1.088-6.658-.965-1.829-2.854-2.972-4.928-2.983-.982-.005-1.871-.585-2.271-1.483s-.237-1.946.417-2.679c1.547-1.738 1.859-4.283.776-6.333-.698-1.322-1.869-2.293-3.298-2.734-1.319-.408-2.058-1.808-1.65-3.127s1.806-2.058 3.127-1.65c2.704.836 4.921 2.674 6.243 5.177 1.418 2.687 1.575 5.82.568 8.585 2.299.917 4.241 2.627 5.438 4.893 1.703 3.225 1.582 7.058-.141 10.135 1.215.989 2.221 2.214 2.969 3.632.502.951.872 1.962 1.1 3.005.294 1.349-.561 2.681-1.909 2.976-.179.04-.358.059-.535.059z"/><path d="m216.259 229.531h-23.605c-1.17 0-2.269-.458-3.092-1.29-.829-.837-1.279-1.95-1.267-3.133.034-3.225 1.128-11.121 10.533-14.798.083-.033.196-.092.256-.186.365-.569.944-.966 1.605-1.101.662-.134 1.35.004 1.908.384 2.676 1.825 8.266 4.747 15.623 3.821.843-.105 1.679.221 2.225.87.546.648.727 1.53.479 2.341-.067.219-.086.442-.057.663.721 5.405.26 9.089-1.371 10.952-.831.953-1.982 1.477-3.237 1.477zm-22.942-5h22.537c.298-.755.526-2.796.138-6.13-6.319.143-11.368-1.964-14.55-3.815-.251.145-.516.273-.792.381-5.646 2.207-7.142 6.299-7.333 9.564z"/><path d="m102.307 229.531h-20.759c-2.35 0-4.264-1.915-4.267-4.269-.014-7.882 4.366-13.208 11.736-14.312.763-.912 2.085-1.169 3.147-.569 2.992 1.694 7.82 3.567 13.825 2.875 1.36-.154 2.589.805 2.766 2.159.419 3.205.718 9.041-1.992 12.127-1.142 1.301-2.683 1.989-4.456 1.989zm-20.011-5h20.011c.375 0 .535-.101.698-.288.749-.853 1.11-3.11.995-5.846-5.261.108-9.645-1.324-12.808-2.878-.372.17-.77.285-1.181.339-6.004.783-7.551 4.996-7.715 8.673z"/><path d="m87.687 229.531h-20.76c-2.348 0-4.262-1.915-4.267-4.268-.01-6.626 3.12-11.559 8.586-13.533.596-.215 1.946-.588 3.15-.778.763-.913 2.087-1.17 3.148-.57 1.521.861 3.98 2.013 7.062 2.611.978.19 1.75.943 1.965 1.916.214.974-.17 1.981-.978 2.565-2.572 1.857-3.192 4.977-3.296 7.058h5.389c1.381 0 2.5 1.119 2.5 2.5s-1.119 2.499-2.499 2.499zm-20.012-5h9.618c.078-2.112.54-5.094 2.23-7.769-1.11-.398-2.101-.83-2.954-1.247-.374.172-.771.29-1.178.343-.868.113-2.072.438-2.448.574-4.047 1.463-5.132 5.071-5.268 8.099z"/><path d="m192.654 229.531h-14.621c-1.169 0-2.267-.458-3.09-1.29-.83-.838-1.28-1.951-1.268-3.134.076-6.818 3.917-12.211 10.539-14.799.066-.026.188-.084.25-.179.364-.57.943-.968 1.605-1.104.661-.138 1.352.003 1.91.384 1.329.906 4.116 2.556 7.85 3.419.919.212 1.641.925 1.865 1.842s-.088 1.882-.806 2.495c-2.803 2.392-3.463 5.512-3.574 7.454 1.061.29 1.84 1.26 1.84 2.412 0 1.381-1.119 2.5-2.5 2.5zm-13.957-5h9.614c.093-2.048.608-5.1 2.534-8.018-1.556-.602-2.903-1.279-4.021-1.928-.25.145-.513.271-.789.379-4.484 1.753-7.07 5.136-7.338 9.567z"/><path d="m157.151 191.355c-3.032 0-5.931-1.109-8.181-3.059-2.249 1.949-5.148 3.059-8.181 3.059-3.823 0-7.418-1.769-9.77-4.715-.677.113-1.361.17-2.046.17-3.812 0-7.369-1.754-9.71-4.643-1.97 1.25-4.253 1.917-6.651 1.917-2.083 0-4.096-.512-5.908-1.492-1.812.98-3.825 1.492-5.908 1.492-4.69 0-8.913-2.656-11.041-6.648-1.653.781-3.467 1.195-5.32 1.195-6.747 0-12.263-5.374-12.491-12.066-5.701-1.159-10.006-6.211-10.006-12.249 0-1.226.183-2.442.538-3.609-4.397-1.975-7.355-6.374-7.355-11.388 0-2.371.655-4.639 1.882-6.601-2.612-2.342-4.154-5.708-4.154-9.306 0-1.759.362-3.463 1.062-5.038-3.439-2.28-5.607-6.177-5.607-10.414 0-.861.091-1.731.271-2.585.156-.742.641-1.373 1.317-1.716 2.463-1.247 4.931-1.997 7.546-2.293l1.668-.188c9.837-1.1 20.98-2.346 26.825-7.833.351-.374.82-.644 1.364-.744 3.23-.597 5.575-3.417 5.575-6.703 0-.979-.211-1.934-.626-2.838-.568-1.237-.042-2.702 1.184-3.294.075-.036.143-.082.214-.124l.221-.132c.296-.171.624-.28.963-.319.518-.06.984-.089 1.426-.089 4.379 0 8.39 2.331 10.63 5.942 1.758-.913 3.718-1.397 5.731-1.397 3.56 0 6.887 1.506 9.224 4.064 2.077-1.449 4.562-2.247 7.137-2.247 3.032 0 5.931 1.109 8.18 3.059 2.25-1.949 5.149-3.059 8.181-3.059 2.575 0 5.06.797 7.137 2.247 2.337-2.559 5.665-4.064 9.225-4.064 2.568 0 5.066.805 7.15 2.261 2.269-2.017 5.224-3.17 8.302-3.17 2.838 0 5.543.952 7.726 2.672 2.182-1.72 4.888-2.672 7.726-2.672 3.519 0 6.787 1.449 9.125 3.966 1.68-.815 3.518-1.239 5.418-1.239 4.31 0 8.302 2.271 10.563 5.84 1-.256 2.027-.386 3.071-.386 6.11 0 11.209 4.407 12.288 10.208 5.802 1.079 10.209 6.178 10.209 12.288 0 2.36-.654 4.626-1.877 6.587 2.349 2.32 3.695 5.481 3.695 8.865 0 2.654-.817 5.167-2.337 7.271 1.52 2.105 2.337 4.618 2.337 7.272 0 2.878-1.005 5.658-2.806 7.873.65 1.533.988 3.181.988 4.853 0 3.817-1.721 7.349-4.614 9.694.645 1.525.979 3.167.979 4.85 0 6.892-5.607 12.498-12.499 12.498-1.356 0-2.684-.218-3.963-.651-1.845 1.024-3.906 1.56-6.035 1.56-5.008 0-9.4-2.922-11.384-7.343-1.453.157-2.944.054-4.368-.302-1.9 4.564-6.362 7.646-11.517 7.646-2.014 0-3.973-.485-5.731-1.397-2.241 3.611-6.251 5.942-10.63 5.942-2.398 0-4.68-.667-6.651-1.917-2.342 2.885-5.899 4.639-9.711 4.639zm-8.181-9.26c.814 0 1.577.396 2.045 1.062 1.407 2.002 3.701 3.198 6.135 3.198 2.928 0 5.606-1.728 6.822-4.403.345-.758 1.044-1.294 1.865-1.431.822-.138 1.657.145 2.228.75 1.436 1.521 3.37 2.358 5.446 2.358 3.309 0 6.267-2.22 7.194-5.398.242-.831.896-1.477 1.73-1.709.833-.233 1.728-.016 2.364.571 1.393 1.284 3.194 1.992 5.073 1.992 3.708 0 6.818-2.66 7.395-6.325.125-.798.629-1.487 1.352-1.848.722-.361 1.575-.352 2.29.028 1.769.939 3.856 1.127 5.755.53.665-.208 1.385-.129 1.988.215.604.345 1.037.927 1.194 1.604.793 3.412 3.793 5.795 7.295 5.795 1.557 0 3.056-.48 4.333-1.389.733-.521 1.69-.609 2.505-.228 1.007.47 2.07.708 3.16.708 4.135 0 7.499-3.364 7.499-7.498 0-1.524-.458-2.994-1.325-4.25-.408-.59-.542-1.328-.368-2.024s.637-1.285 1.274-1.615c2.5-1.297 4.054-3.848 4.054-6.654 0-1.394-.395-2.763-1.142-3.958-.644-1.031-.453-2.376.453-3.187 1.593-1.426 2.506-3.46 2.506-5.58 0-2.079-.84-4.015-2.365-5.453-.501-.472-.785-1.131-.785-1.819 0-.689.284-1.347.786-1.819 1.525-1.437 2.365-3.373 2.365-5.452 0-2.584-1.313-4.954-3.513-6.341-.64-.403-1.062-1.074-1.15-1.824s.168-1.501.698-2.041c1.384-1.413 2.147-3.276 2.147-5.247 0-4.135-3.364-7.499-7.499-7.499-1.381 0-2.5-1.119-2.5-2.5 0-4.134-3.364-7.498-7.499-7.498-1.114 0-2.198.248-3.223.738-.629.301-1.357.326-2.005.066-.648-.259-1.159-.777-1.408-1.43-1.103-2.888-3.916-4.829-6.998-4.829-1.64 0-3.204.529-4.523 1.531-.562.426-1.278.594-1.97.466-.693-.129-1.3-.545-1.67-1.146-1.381-2.241-3.766-3.578-6.38-3.578-2.251 0-4.363.999-5.795 2.741-.475.577-1.183.912-1.931.912s-1.456-.334-1.931-.912c-1.433-1.742-3.545-2.741-5.795-2.741-2.391 0-4.661 1.165-6.073 3.115-.44.608-1.13.986-1.879 1.03-.754.042-1.479-.251-1.986-.804-1.442-1.569-3.4-2.433-5.514-2.433-2.766 0-5.298 1.516-6.61 3.957-.389.724-1.109 1.211-1.926 1.302-.816.093-1.626-.226-2.165-.847-1.43-1.649-3.493-2.594-5.661-2.594-2.434 0-4.728 1.196-6.135 3.198-.468.666-1.231 1.062-2.045 1.062-.814 0-1.578-.396-2.045-1.063-1.407-2.002-3.7-3.198-6.135-3.198-2.167 0-4.231.946-5.662 2.594-.539.621-1.35.934-2.165.847-.817-.091-1.537-.578-1.926-1.302-1.312-2.441-3.844-3.957-6.609-3.957-1.878 0-3.68.708-5.073 1.992-.636.587-1.531.803-2.364.571-.834-.232-1.488-.878-1.73-1.709-.783-2.687-3.019-4.688-5.69-5.243.076.541.115 1.089.115 1.642 0 5.439-3.705 10.14-8.915 11.456-7.105 6.313-18.878 7.63-29.294 8.794l-1.659.189c-1.607.182-3.15.591-4.687 1.244-.006.128-.01.255-.01.382 0 3.141 1.99 5.972 4.953 7.043.749.271 1.324.882 1.548 1.646s.071 1.589-.413 2.222c-1.01 1.322-1.543 2.892-1.543 4.541 0 2.756 1.508 5.285 3.935 6.599.696.377 1.173 1.062 1.285 1.846s-.155 1.574-.718 2.131c-1.438 1.421-2.229 3.314-2.229 5.331 0 3.645 2.605 6.746 6.195 7.375.812.143 1.503.677 1.844 1.428s.291 1.622-.137 2.328c-.709 1.174-1.085 2.511-1.085 3.866 0 4.135 3.364 7.499 7.499 7.499-.017-.004.085-.01.174-.009.735 0 1.433.323 1.909.885.484.573.686 1.333.549 2.07-.089.481-.132.929-.132 1.371 0 4.135 3.364 7.499 7.499 7.499 1.809 0 3.56-.661 4.931-1.862.668-.585 1.595-.774 2.439-.491.842.281 1.472.988 1.655 1.857.724 3.447 3.809 5.949 7.336 5.949 1.597 0 3.128-.505 4.428-1.46.881-.647 2.08-.647 2.961 0 1.299.955 2.831 1.46 4.428 1.46 2.076 0 4.01-.837 5.445-2.357.572-.605 1.404-.886 2.229-.75.821.137 1.521.673 1.865 1.431 1.217 2.675 3.895 4.403 6.823 4.403.791 0 1.582-.128 2.351-.382 1.131-.372 2.365.103 2.954 1.135 1.335 2.339 3.831 3.792 6.512 3.792 2.435 0 4.728-1.195 6.135-3.198.465-.666 1.228-1.062 2.042-1.062z"/><path d="m26.547 125.806c-5.273 0-9.335-2.627-11.393-4.306l-.288.159c-2.59 1.426-5.792.534-7.29-2.031-2.754-4.719-4.444-9.311-5.021-13.647-.127-.954.304-1.896 1.109-2.422.806-.527 1.841-.545 2.664-.047 2.496.09 4.402-1.694 5.534-3.217 1.456-1.959 2.051-3.94 2.194-5.111-3.072.822-5.636.69-7.319.412-.791-.131-1.471-.633-1.829-1.351s-.35-1.563.022-2.274c2.521-4.822 6.795-9.046 12.705-12.554 8.833-5.243 10.774-21.109 10.792-21.269.026-.221.081-.438.165-.646 1.973-4.896 4.921-9.097 8.762-12.485.611-.54 1.449-.747 2.24-.555.793.191 1.442.757 1.741 1.516.848 2.16 2.892 3.556 5.206 3.556 1.458 0 2.841-.562 3.893-1.582.562-.544 1.348-.792 2.12-.677.774.119 1.447.593 1.819 1.282 1.3 2.403 4.269 3.574 6.913 2.569.684-.261 1.446-.208 2.088.143s1.098.964 1.248 1.68c.54 2.572 2.843 4.438 5.475 4.438.253 0 .528-.024.863-.076.878-.134 1.757.202 2.318.889.561.686.716 1.618.409 2.449-.235.635-.354 1.286-.354 1.937 0 1.668.738 3.238 2.024 4.307.606.504.939 1.266.898 2.054s-.452 1.51-1.108 1.948c-1.904 1.272-3.042 3.395-3.042 5.678 0 3.157 2.146 5.881 5.217 6.624 1.146.277 1.943 1.318 1.911 2.498l-.012.226c-.001 3.74 3.061 6.802 6.824 6.802.404 0 .814-.04 1.254-.122 1.085-.204 2.179.333 2.683 1.317s.303 2.182-.496 2.947c-7.039 6.736-19.145 8.089-29.825 9.284l-1.661.184c-7.045.798-11.826 5.818-16.449 10.672-3.587 3.766-6.976 7.324-11.18 8.34-1.331.322-2.61.461-3.824.461zm-11.036-9.857c.682 0 1.354.278 1.84.806.198.212 5.121 5.358 11.846 3.729 2.773-.67 5.668-3.71 8.734-6.929 4.748-4.984 10.657-11.188 19.506-12.191l1.668-.188c7.51-.84 15.782-1.765 21.875-4.597-3.545-1.687-6.123-5.087-6.658-9.124-4.33-1.82-7.218-6.061-7.218-10.885 0-2.99 1.124-5.821 3.096-7.976-1.207-1.749-1.869-3.835-1.869-6.011 0-.116.002-.231.006-.347-3.375-.573-6.281-2.769-7.771-5.818-3.327.404-6.669-.833-8.926-3.194-1.548.854-3.293 1.308-5.101 1.308-3.157 0-6.048-1.369-8.018-3.662-2.16 2.374-3.894 5.124-5.174 8.208-.363 2.659-2.936 18.566-13.162 24.636-3.454 2.05-6.239 4.344-8.325 6.849.521-.104 1.068-.245 1.636-.433 1.741-.574 3.355-.206 4.434 1.014 1.947 2.201 1.129 6.181-.286 9.172-1.692 3.578-4.999 7.314-9.516 8.065.745 2.785 2.005 5.707 3.766 8.723.118.204.365.28.56.172l1.852-1.02c.38-.206.794-.307 1.205-.307z"/><path d="m6.476 108.52c-.127 0-.255-.002-.384-.007-1.435-.052-2.811-.767-3.772-1.96-1.544-1.915-3.739-6.072-1.098-12.407 1.059-2.538 3.583-3.978 6.141-3.513 1.356.251 3.52.366 6.135-.5 1.741-.574 3.355-.206 4.434 1.014 1.947 2.201 1.129 6.181-.286 9.172-1.894 4.002-5.805 8.201-11.17 8.201zm-.074-12.974c-.207 0-.434.206-.566.524-1.563 3.748-.659 6.062.375 7.344.06.074.109.106.124.113 2.466.087 4.396-1.709 5.527-3.232 1.456-1.959 2.051-3.94 2.194-5.111-3.202.858-5.859.687-7.598.367-.019-.003-.038-.005-.056-.005zm-2.873-.438h.01z"/><path d="m86.045 97.721c-5.991 0-10.956-4.479-11.722-10.264-4.33-1.82-7.218-6.061-7.218-10.885 0-2.99 1.124-5.821 3.096-7.976-1.207-1.749-1.869-3.835-1.869-6.011 0-.116.002-.231.006-.347-3.375-.573-6.281-2.769-7.771-5.818-3.325.406-6.668-.833-8.926-3.194-1.548.854-3.293 1.309-5.101 1.309-5.843 0-10.597-4.754-10.597-10.598 0-5.843 4.754-10.597 10.597-10.597.925 0 1.835.119 2.713.352 1.412-4.194 5.382-7.223 10.047-7.223 3.038 0 5.882 1.325 7.857 3.505 1.884-1.604 4.303-2.524 6.866-2.524 3.646 0 6.979 1.896 8.897 4.856 1.441-.613 2.995-.93 4.598-.93 5.909 0 10.944 4.418 11.713 10.276.102.773-.164 1.55-.717 2.1s-1.331.808-2.104.703c-.591-.082-1.188-.173-1.792-.283-4.625-.839-8.846-.298-12.55 1.608-.449.231-.879.497-1.289.794.994 2.452 1.026 5.178.123 7.637 2.311.927 4.257 2.65 5.437 4.883 1.117 2.116 1.475 4.484 1.064 6.773 3.315.982 6.794 1.083 10.372.297 1.02-.223 2.076.211 2.641 1.093 1.224 1.909 1.871 4.111 1.871 6.37 0 3.805-1.777 7.269-4.754 9.473.224.912.337 1.847.337 2.796 0 6.521-5.305 11.825-11.825 11.825zm-14.703-40.44c.744 0 1.457.332 1.936.918.561.686.716 1.618.409 2.449-.235.635-.354 1.286-.354 1.937 0 1.668.738 3.238 2.024 4.307.606.504.939 1.266.898 2.054s-.452 1.51-1.108 1.948c-1.904 1.272-3.042 3.395-3.042 5.678 0 3.157 2.146 5.881 5.217 6.624 1.146.277 1.943 1.318 1.911 2.498l-.012.226c-.001 3.74 3.061 6.802 6.824 6.802s6.824-3.062 6.824-6.824c0-.979-.211-1.934-.626-2.838-.568-1.237-.042-2.701 1.183-3.293 2.381-1.153 3.86-3.504 3.86-6.137 0-.761-.128-1.511-.375-2.223-4.693.691-9.247.128-13.563-1.684-.625-.263-1.116-.767-1.362-1.398s-.225-1.335.058-1.951c.734-1.597.688-3.398-.127-4.943-.839-1.59-2.346-2.653-4.135-2.918-.881-.13-1.626-.72-1.956-1.547l-.417-1.047c-.301-.756-.216-1.612.229-2.294 1.115-1.706 1.22-3.879.273-5.672-.1-.189-.213-.37-.332-.544-.666-.979-.554-2.292.269-3.143 1.151-1.192 2.473-2.177 3.93-2.928 3.953-2.036 8.321-2.857 13.016-2.449-1.26-1.539-3.172-2.51-5.276-2.51-1.521 0-2.966.498-4.177 1.438-.656.51-1.525.66-2.313.401-.79-.259-1.399-.895-1.625-1.694-.679-2.397-2.891-4.071-5.379-4.071-2.069 0-3.961 1.136-4.939 2.965-.462.866-1.388 1.377-2.371 1.316-.98-.065-1.832-.699-2.175-1.62-.814-2.179-2.919-3.643-5.237-3.643-3.086 0-5.598 2.511-5.598 5.597l.012.185c.031.949-.478 1.834-1.315 2.284-.836.449-1.855.387-2.63-.163-.952-.676-2.068-1.033-3.229-1.033-3.086 0-5.597 2.511-5.597 5.597s2.511 5.598 5.597 5.598c1.458 0 2.841-.562 3.893-1.583.562-.544 1.348-.792 2.12-.677.774.119 1.447.593 1.819 1.282 1.3 2.403 4.269 3.574 6.913 2.569.683-.261 1.446-.208 2.088.143s1.098.964 1.248 1.68c.54 2.572 2.843 4.438 5.475 4.438.253 0 .528-.024.863-.076.126-.021.254-.031.381-.031z"/><path d="m93.114 71.707c-3.201 0-6.48-.606-9.766-1.986-.625-.263-1.116-.767-1.362-1.398s-.225-1.335.058-1.951c.734-1.597.688-3.398-.127-4.943-.839-1.59-2.346-2.653-4.135-2.918-.881-.13-1.626-.72-1.956-1.547l-.417-1.047c-.301-.756-.216-1.612.229-2.294 1.115-1.706 1.22-3.879.273-5.672-.1-.189-.213-.37-.332-.544-.666-.979-.554-2.292.269-3.143 1.151-1.192 2.473-2.177 3.93-2.928 4.707-2.423 10-3.124 15.733-2.083 6.727 1.223 12.539.404 17.209-.252 5.488-.773 10.227-1.44 12.425 2.672 2.496 4.672-2.056 12.298-6.713 17.41-6.121 6.717-15.329 12.624-25.318 12.624zm-5.711-5.839c10.448 3.099 20.839-3.026 27.333-10.154 5.138-5.64 6.615-10.532 5.999-11.686-.55-1.03-3.838-.567-7.318-.077-4.76.669-11.277 1.588-18.799.221-4.623-.839-8.846-.298-12.549 1.608-.449.231-.879.497-1.289.794.994 2.452 1.026 5.178.123 7.637 2.311.927 4.257 2.65 5.437 4.883 1.115 2.116 1.473 4.484 1.063 6.774z"/><path d="m80.423 59.128c-.086 0-.17 0-.251 0-.337-.001-.67-.071-.979-.205-.477-.206-.952-.345-1.412-.413-.881-.13-1.626-.72-1.956-1.547l-.417-1.047c-.301-.756-.216-1.612.229-2.294 1.115-1.706 1.22-3.879.273-5.672-.1-.189-.213-.37-.332-.544-.666-.979-.554-2.292.269-3.143 1.151-1.192 2.473-2.177 3.93-2.928 4.707-2.423 9.999-3.124 15.733-2.083 6.727 1.223 12.539.404 17.209-.252 5.488-.773 10.227-1.439 12.425 2.672.99 1.854.928 4.314-.186 7.312-.336.905-1.163 1.536-2.124 1.621l-.432.038c-.338.029-.675-.009-.996-.114-2.972-.97-8.017-1.312-15.175 2.569-9.975 5.408-21.19 6.03-25.808 6.03zm.356-12.554c.983 2.423 1.026 5.114.154 7.551 3.903-.048 14.14-.666 22.916-5.423 7.272-3.944 12.99-4.233 16.954-3.479.081-.648.015-1.04-.069-1.196-.55-1.029-3.838-.566-7.318-.077-4.76.669-11.277 1.588-18.799.221-4.623-.839-8.846-.298-12.549 1.608-.449.232-.88.498-1.289.795z"/></svg>